<?xml version="1.0" encoding="UTF-8" standalone="no"?>
<!DOCTYPE svg PUBLIC "-//W3C//DTD SVG 1.1//EN" "http://www.w3.org/Graphics/SVG/1.1/DTD/svg11.dtd">
<svg version="1.1" xmlns="http://www.w3.org/2000/svg" xmlns:xlink="http://www.w3.org/1999/xlink" preserveAspectRatio="xMidYMid meet" viewBox="0 0 300 300" width="300" height="300"><defs><path d="M0 0L301.5 0L301.5 300L0 300L0 0Z" id="a1GmkaXFhc"></path><path d="M46.9 105.6C46.9 142.93 46.9 163.67 46.9 167.82C46.9 177.98 53.89 183.69 64.36 183.69C74.84 183.69 81.82 178.3 81.82 167.82C81.82 163.67 81.82 142.93 81.82 105.6L105.95 105.6C105.95 142.93 105.95 163.67 105.95 167.82C105.95 190.04 89.44 205.6 64.36 205.6C39.28 205.6 22.46 190.04 22.46 167.82C22.46 163.67 22.46 142.93 22.46 105.6L46.9 105.6Z" id="ePubGLbJJ"></path><path d="M164.89 105.6C184.57 105.6 197.8 119.79 197.8 139.79C197.8 159.79 184.57 174.63 164.89 174.63C163.73 174.63 157.93 174.63 147.48 174.63L147.48 205.6L122.64 205.6L122.64 105.6C147.99 105.6 162.08 105.6 164.89 105.6ZM172.64 140.11C172.64 132.37 168.44 126.56 160.06 126.56C159.22 126.56 155.02 126.56 147.48 126.56L147.48 153.66L159.73 153.66C168.34 149.79 172.64 145.27 172.64 140.11Z" id="e3xlgi979P"></path><path d="M228.42 85.15L237.44 85.15L237.44 118.88L245.01 118.88L245.01 125.37L237.44 125.37L237.44 140.15L229.68 140.15L229.68 125.55L202.63 125.55L202.45 120.5L228.42 85.15ZM229.5 118.7C229.5 106.79 229.5 100.18 229.5 98.86C229.5 96.33 229.86 93.45 229.86 93.45C229.85 93.45 229.7 93.45 229.68 93.45C228.96 95.07 227.88 96.52 226.98 97.96C225.92 99.35 220.63 106.32 211.11 118.88L211.11 118.88L229.5 118.88L229.5 118.7Z" id="c1yTzdREXX"></path><path d="M276.4 101.25C276.4 95.94 272.34 92.23 266.5 92.23C259.25 92.23 255.36 99.13 255.36 99.13C254.8 98.75 250.27 95.78 249.7 95.41C253.24 89.05 259.78 85.15 267.03 85.15C277.11 85.15 284.36 91.34 284.36 100.72C284.36 118.4 258.19 121.23 258.01 133.61C259.83 133.61 268.91 133.61 285.25 133.61L285.25 140.15C264.03 140.15 252.24 140.15 249.88 140.15C249.7 138.56 249.53 137.15 249.53 135.91C249.53 116.63 276.4 113.8 276.4 101.25Z" id="d2t6xtf3zG"></path></defs><g><g><g><use xlink:href="#a1GmkaXFhc" opacity="1" fill="#242c5c" fill-opacity="1"></use></g><g><use xlink:href="#ePubGLbJJ" opacity="1" fill="#ffffff" fill-opacity="1"></use><g><use xlink:href="#ePubGLbJJ" opacity="1" fill-opacity="0" stroke="#ffffff" stroke-width="1" stroke-opacity="1"></use></g></g><g><use xlink:href="#e3xlgi979P" opacity="1" fill="#ffffff" fill-opacity="1"></use><g><use xlink:href="#e3xlgi979P" opacity="1" fill-opacity="0" stroke="#ffffff" stroke-width="1" stroke-opacity="1"></use></g></g><g><use xlink:href="#c1yTzdREXX" opacity="1" fill="#ffffff" fill-opacity="1"></use><g><use xlink:href="#c1yTzdREXX" opacity="1" fill-opacity="0" stroke="#ffffff" stroke-width="1" stroke-opacity="1"></use></g></g><g><use xlink:href="#d2t6xtf3zG" opacity="1" fill="#ffffff" fill-opacity="1"></use><g><use xlink:href="#d2t6xtf3zG" opacity="1" fill-opacity="0" stroke="#ffffff" stroke-width="1" stroke-opacity="1"></use></g></g></g></g></svg>
